<?xml version="1.0" standalone="no"?><!DOCTYPE svg PUBLIC "-//W3C//DTD SVG 1.1//EN" "http://www.w3.org/Graphics/SVG/1.1/DTD/svg11.dtd"><svg t="1652351651248" class="icon" viewBox="0 0 1475 1024" version="1.1" xmlns="http://www.w3.org/2000/svg" p-id="22482" xmlns:xlink="http://www.w3.org/1999/xlink" width="288.0859375" height="200"><defs><style type="text/css"></style></defs><path d="M279.842821 135.582762m-84.2456 0a84.2456 84.2456 0 1 0 168.4912 0 84.2456 84.2456 0 1 0-168.4912 0Z" fill="#FF6584" p-id="22483"></path><path d="M689.729256 451.664355c0 198.781442-118.172882 268.189285-263.945413 268.189285s-263.946729-69.407844-263.946729-268.190602S425.783843 0 425.783843 0s263.945413 252.881596 263.945413 451.664355z" fill="#F2F2F2" p-id="22484"></path><path d="M416.167998 689.446244l2.703757-166.362682 112.499468-205.814633-112.075608 179.716926 1.21498-74.803511 77.534911-148.904098-77.213725 129.109014 2.185121-134.53759 83.026671-118.546722-82.681791 97.390546L424.726824 0l-8.582521 326.578068 0.705557-13.472715-84.412774-129.207739 83.059579 155.069822-7.865116 150.25466-0.234308-3.987186-97.314199-135.972398 97.019339 150.061158-0.983304 18.790718-0.176389 0.283012 0.080296 1.542748-19.95436 381.210022h26.6611l3.1987-196.903028 96.779766-149.6939-96.540192 134.893002z" fill="#3F3D56" p-id="22485"></path><path d="M1475.077268 533.079829c0 162.712478-96.729745 219.525604-216.05179 219.525604s-216.053106-56.813126-216.053106-219.525604S1259.025478 163.370647 1259.025478 163.370647s216.05179 206.996704 216.05179 369.709182z" fill="#F2F2F2" p-id="22486"></path><path d="M1251.155096 727.714807l2.211447-136.175114 92.087023-168.468822-91.739509 147.105981 0.995151-61.229439 63.465896-121.88627-63.202629 105.682156 1.788903-110.124795 67.959872-97.036451-67.679492 79.720031 1.118887-201.931437-7.025294 267.319186 0.577873-11.026959-69.097188-105.763769 67.988831 126.933108-6.438206 122.990678-0.192186-3.264517-79.655531-111.300284 79.414642 122.832717-0.805599 15.381403-0.143481 0.231676 0.065817 1.262367-16.334432 312.037804h21.82356l2.618195-161.173679 79.219823-122.531276-79.022373 110.415705z" fill="#3F3D56" p-id="22487"></path><path d="M0 895.740023a730.030245 36.902205 0 1 0 1460.06049 0 730.030245 36.902205 0 1 0-1460.06049 0Z" fill="#3F3D56" p-id="22488"></path><path d="M1049.721235 956.710144a125.037582 6.321053 0 1 0 250.075165 0 125.037582 6.321053 0 1 0-250.075165 0Z" fill="#3F3D56" p-id="22489"></path><path d="M597.263129 1017.678947a125.037582 6.321053 0 1 0 250.075165 0 125.037582 6.321053 0 1 0-250.075165 0Z" fill="#3F3D56" p-id="22490"></path><path d="M93.367819 966.558981a285.663665 14.440222 0 1 0 571.327331 0 285.663665 14.440222 0 1 0-571.327331 0Z" fill="#3F3D56" p-id="22491"></path><path d="M127.79531 745.402434m-103.990663 0a103.990662 103.990662 0 1 0 207.981325 0 103.990662 103.990662 0 1 0-207.981325 0Z" fill="#2F2E41" p-id="22492"></path><path d="M79.44755 826.45065l31.590783 0.372524-0.667383 56.598563-31.589467-0.372523zM142.6278 827.195697l31.590784 0.372524-0.667383 56.598563-31.589467-0.372523z" fill="#2F2E41" p-id="22493"></path><path d="M104.982673 893.889148a26.32675 9.872531 0.675 1 0 0.232611-19.743693 26.32675 9.872531 0.675 1 0-0.232611 19.743693Z" fill="#2F2E41" p-id="22494"></path><path d="M168.178705 893.319173a26.32675 9.872531 0.675 1 0 0.23261-19.743692 26.32675 9.872531 0.675 1 0-0.23261 19.743692Z" fill="#2F2E41" p-id="22495"></path><path d="M130.737324 719.108593m-35.541113 0a35.541112 35.541112 0 1 0 71.082225 0 35.541112 35.541112 0 1 0-71.082225 0Z" fill="#FFFFFF" p-id="22496"></path><path d="M130.737324 719.108593m-11.847038 0a11.847037 11.847037 0 1 0 23.694075 0 11.847037 11.847037 0 1 0-23.694075 0Z" fill="#3F3D56" p-id="22497"></path><path d="M28.066948 647.51168c-7.953311-37.699906 19.334365-75.380067 60.946426-84.157405s81.795896 14.667949 89.747891 52.367854-19.716103 51.245019-61.328164 60.02499-81.412841 9.465783-89.366153-28.235439zM286.424509 803.41606c0 72.498604-43.09689 97.811774-96.263762 97.811774q-1.846822 0-3.688377-0.03949c-2.464184-0.05397-4.903357-0.171124-7.313571-0.335666-47.983134-3.396151-85.261812-30.012495-85.261813-97.436618 0-69.776418 89.167386-157.8236 95.864911-164.339471l0.013164-0.013163 0.385686-0.37384s96.263761 92.22787 96.263762 164.726474z" fill="#0893DE" p-id="22498"></path><path d="M186.654024 890.137691l35.208079-49.196798-35.296273 54.597731-0.09346 5.648404c-2.464184-0.052653-4.903357-0.171124-7.313571-0.33435l3.793684-72.532829-0.028959-0.563392 0.0645-0.105307 0.358044-6.851537-35.383152-54.733313 35.493725 49.595648 0.082929 1.454553 2.868299-54.803079-30.294191-56.556441 30.662766 46.937963 2.985453-113.618355 0.013164-0.387003v0.375156l-0.500209 89.595196 30.158609-35.518735-30.281028 43.236421-0.797701 49.067797 28.157776-47.090658-28.27493 54.310769-0.446238 27.278462 40.880177-65.543077-41.032872 75.061513z" fill="#3F3D56" p-id="22499"></path><path d="M937.870721 744.276966m-103.990662 0a103.990662 103.990662 0 1 0 207.981324 0 103.990662 103.990662 0 1 0-207.981324 0Z" fill="#2F2E41" p-id="22500"></path><path d="M916.548686 836.211293l30.196783-9.28018 16.629291 54.104104-30.198098 9.28018zM976.943567 817.656199l30.196782-9.280179 16.627976 54.104104-30.196783 9.280179z" fill="#2F2E41" p-id="22501"></path><path d="M933.371138 890.946415a9.872531 26.32675 72.917 1 0 50.330439-15.467319 9.872531 26.32675 72.917 1 0-50.330439 15.467319Z" fill="#2F2E41" p-id="22502"></path><path d="M993.38039 871.126708a9.872531 26.32675 72.917 1 0 50.330439-15.467319 9.872531 26.32675 72.917 1 0-50.330439 15.467319Z" fill="#2F2E41" p-id="22503"></path><path d="M932.654076 718.338535m-35.541113 0a35.541112 35.541112 0 1 0 71.082225 0 35.541112 35.541112 0 1 0-71.082225 0Z" fill="#FFFFFF" p-id="22504"></path><path d="M932.654076 718.338535m-11.847038 0a11.847037 11.847037 0 1 0 23.694075 0 11.847037 11.847037 0 1 0-23.694075 0Z" fill="#3F3D56" p-id="22505"></path><path d="M813.037171 681.469238c-19.07373-33.478412-4.578222-77.684974 32.375321-98.738475s82.369819-10.978255 101.443549 22.501473-3.146047 54.816242-40.099589 75.868428-74.64555 33.846986-93.719281 0.368574zM752.407982 790.140797c0 66.550075-39.559891 89.787381-88.365736 89.78738q-1.695443 0-3.38562-0.03949a144.2311 144.2311 0 0 1-6.713321-0.30539c-44.045969-3.117087-78.266795-27.550944-78.266795-89.4425 0-64.052983 81.851182-144.876105 87.999794-150.857543l0.010531-0.01053c0.236941-0.231675 0.355411-0.343564 0.355411-0.343565s88.365736 84.661562 88.365736 151.211638z" fill="#0893DE" p-id="22506"></path><path d="M660.822485 869.746307l32.320034-45.159591-32.400331 50.118234-0.085562 5.185054a144.2311 144.2311 0 0 1-6.713321-0.306707l3.483029-66.582983-0.026327-0.517321 0.057919-0.096093 0.329084-6.288144-32.481944-50.243286 32.583302 45.526849 0.076348 1.334766 2.632675-50.30647-27.80763-51.916351 28.145929 43.086359 2.740614-104.297369 0.010531-0.355411v0.344881l-0.456769 82.244766 27.682578-32.605679-27.795783 39.690208-0.7332 45.042436 25.848919-43.228523-25.955542 49.856282-0.409381 25.039372 37.524833-60.164521-37.665681 68.903686z" fill="#3F3D56" p-id="22507"></path><path d="M1099.921081 817.895773c0 72.498604-43.09689 97.811774-96.263761 97.811774q-1.846822 0-3.688377-0.03949c-2.464184-0.05397-4.903357-0.171124-7.313571-0.335666-47.983134-3.396151-85.261812-30.012495-85.261813-97.436618 0-69.776418 89.167386-157.8236 95.864911-164.339471l0.013163-0.013164 0.385687-0.37384s96.263761 92.22787 96.263761 164.726475z" fill="#0893DE" p-id="22508"></path><path d="M1000.150597 904.617403l35.208079-49.196797-35.296273 54.59773-0.09346 5.648404c-2.464184-0.052653-4.903357-0.171124-7.313571-0.334349l3.793684-72.532829-0.028959-0.563393 0.0645-0.105307 0.358044-6.851536-35.383152-54.733313 35.495041 49.595648 0.081613 1.454552 2.868299-54.803079-30.294191-56.55644 30.662766 46.937962 2.985453-113.618354 0.013163-0.387004v0.375157l-0.500208 89.595195 30.158609-35.518735-30.281028 43.236422-0.797701 49.067796 28.157776-47.090657-28.27493 54.310768-0.446238 27.278462 40.880177-65.543076-41.032872 75.061513z" fill="#3F3D56" p-id="22509"></path><path d="M890.50152 798.995747a51.995331 16.322585 25.374 1 0 13.989277-29.495886 51.995331 16.322585 25.374 1 0-13.989277 29.495886Z" fill="#2F2E41" p-id="22510"></path><path d="M89.774181 792.816265a51.995331 16.322585 21.842 1 0 12.145582-30.301682 51.995331 16.322585 21.842 1 0-12.145582 30.301682Z" fill="#2F2E41" p-id="22511"></path></svg>